<?xml version="1.0" encoding="utf-8" standalone="no"?>
<!DOCTYPE svg PUBLIC "-//W3C//DTD SVG 1.1//EN"
  "http://www.w3.org/Graphics/SVG/1.1/DTD/svg11.dtd">
<svg xmlns:xlink="http://www.w3.org/1999/xlink" width="1105.92pt" height="540.72pt" viewBox="0 0 1105.92 540.72" xmlns="http://www.w3.org/2000/svg" version="1.1">
 <metadata>
  <rdf:RDF xmlns:dc="http://purl.org/dc/elements/1.1/" xmlns:cc="http://creativecommons.org/ns#" xmlns:rdf="http://www.w3.org/1999/02/22-rdf-syntax-ns#">
   <cc:Work>
    <dc:type rdf:resource="http://purl.org/dc/dcmitype/StillImage"/>
    <dc:date>2023-10-09T10:35:18.817879</dc:date>
    <dc:format>image/svg+xml</dc:format>
    <dc:creator>
     <cc:Agent>
      <dc:title>Matplotlib v3.6.3, https://matplotlib.org/</dc:title>
     </cc:Agent>
    </dc:creator>
   </cc:Work>
  </rdf:RDF>
 </metadata>
 <defs>
  <style type="text/css">*{stroke-linejoin: round; stroke-linecap: butt}</style>
 </defs>
 <g id="figure_1">
  <g id="patch_1">
   <path d="M 0 540.72 
L 1105.92 540.72 
L 1105.92 0 
L 0 0 
z
" style="fill: #ffffff"/>
  </g>
  <g id="axes_1">
   <g id="patch_2">
    <path d="M 138.24 481.2408 
L 995.328 481.2408 
L 995.328 64.8864 
L 138.24 64.8864 
z
" style="fill: #ffffff"/>
   </g>
   <g id="matplotlib.axis_1">
    <g id="xtick_1">
     <g id="line2d_1">
      <path d="M 138.24 481.2408 
L 138.24 64.8864 
" clip-path="url(#p8311e48ea2)" style="fill: none; stroke: #b0b0b0; stroke-width: 0.8; stroke-linecap: square"/>
     </g>
     <g id="line2d_2">
      <defs>
       <path id="m3cceae2c00" d="M 0 0 
L 0 3.5 
" style="stroke: #000000; stroke-width: 0.8"/>
      </defs>
      <g>
       <use xlink:href="#m3cceae2c00" x="138.24" y="481.2408" style="stroke: #000000; stroke-width: 0.8"/>
      </g>
     </g>
     <g id="text_1">
      <!-- 0.0 -->
      <g transform="translate(130.288438 495.839238) scale(0.1 -0.1)">
       <defs>
        <path id="DejaVuSans-30" d="M 2034 4250 
Q 1547 4250 1301 3770 
Q 1056 3291 1056 2328 
Q 1056 1369 1301 889 
Q 1547 409 2034 409 
Q 2525 409 2770 889 
Q 3016 1369 3016 2328 
Q 3016 3291 2770 3770 
Q 2525 4250 2034 4250 
z
M 2034 4750 
Q 2819 4750 3233 4129 
Q 3647 3509 3647 2328 
Q 3647 1150 3233 529 
Q 2819 -91 2034 -91 
Q 1250 -91 836 529 
Q 422 1150 422 2328 
Q 422 3509 836 4129 
Q 1250 4750 2034 4750 
z
" transform="scale(0.015625)"/>
        <path id="DejaVuSans-2e" d="M 684 794 
L 1344 794 
L 1344 0 
L 684 0 
L 684 794 
z
" transform="scale(0.015625)"/>
       </defs>
       <use xlink:href="#DejaVuSans-30"/>
       <use xlink:href="#DejaVuSans-2e" x="63.623047"/>
       <use xlink:href="#DejaVuSans-30" x="95.410156"/>
      </g>
     </g>
    </g>
    <g id="xtick_2">
     <g id="line2d_3">
      <path d="M 223.9488 481.2408 
L 223.9488 64.8864 
" clip-path="url(#p8311e48ea2)" style="fill: none; stroke: #b0b0b0; stroke-width: 0.8; stroke-linecap: square"/>
     </g>
     <g id="line2d_4">
      <g>
       <use xlink:href="#m3cceae2c00" x="223.9488" y="481.2408" style="stroke: #000000; stroke-width: 0.8"/>
      </g>
     </g>
     <g id="text_2">
      <!-- 1.0 -->
      <g transform="translate(215.997238 495.839238) scale(0.1 -0.1)">
       <defs>
        <path id="DejaVuSans-31" d="M 794 531 
L 1825 531 
L 1825 4091 
L 703 3866 
L 703 4441 
L 1819 4666 
L 2450 4666 
L 2450 531 
L 3481 531 
L 3481 0 
L 794 0 
L 794 531 
z
" transform="scale(0.015625)"/>
       </defs>
       <use xlink:href="#DejaVuSans-31"/>
       <use xlink:href="#DejaVuSans-2e" x="63.623047"/>
       <use xlink:href="#DejaVuSans-30" x="95.410156"/>
      </g>
     </g>
    </g>
    <g id="xtick_3">
     <g id="line2d_5">
      <path d="M 309.6576 481.2408 
L 309.6576 64.8864 
" clip-path="url(#p8311e48ea2)" style="fill: none; stroke: #b0b0b0; stroke-width: 0.8; stroke-linecap: square"/>
     </g>
     <g id="line2d_6">
      <g>
       <use xlink:href="#m3cceae2c00" x="309.6576" y="481.2408" style="stroke: #000000; stroke-width: 0.8"/>
      </g>
     </g>
     <g id="text_3">
      <!-- 2.0 -->
      <g transform="translate(301.706037 495.839238) scale(0.1 -0.1)">
       <defs>
        <path id="DejaVuSans-32" d="M 1228 531 
L 3431 531 
L 3431 0 
L 469 0 
L 469 531 
Q 828 903 1448 1529 
Q 2069 2156 2228 2338 
Q 2531 2678 2651 2914 
Q 2772 3150 2772 3378 
Q 2772 3750 2511 3984 
Q 2250 4219 1831 4219 
Q 1534 4219 1204 4116 
Q 875 4013 500 3803 
L 500 4441 
Q 881 4594 1212 4672 
Q 1544 4750 1819 4750 
Q 2544 4750 2975 4387 
Q 3406 4025 3406 3419 
Q 3406 3131 3298 2873 
Q 3191 2616 2906 2266 
Q 2828 2175 2409 1742 
Q 1991 1309 1228 531 
z
" transform="scale(0.015625)"/>
       </defs>
       <use xlink:href="#DejaVuSans-32"/>
       <use xlink:href="#DejaVuSans-2e" x="63.623047"/>
       <use xlink:href="#DejaVuSans-30" x="95.410156"/>
      </g>
     </g>
    </g>
    <g id="xtick_4">
     <g id="line2d_7">
      <path d="M 395.3664 481.2408 
L 395.3664 64.8864 
" clip-path="url(#p8311e48ea2)" style="fill: none; stroke: #b0b0b0; stroke-width: 0.8; stroke-linecap: square"/>
     </g>
     <g id="line2d_8">
      <g>
       <use xlink:href="#m3cceae2c00" x="395.3664" y="481.2408" style="stroke: #000000; stroke-width: 0.8"/>
      </g>
     </g>
     <g id="text_4">
      <!-- 3.0 -->
      <g transform="translate(387.414838 495.839238) scale(0.1 -0.1)">
       <defs>
        <path id="DejaVuSans-33" d="M 2597 2516 
Q 3050 2419 3304 2112 
Q 3559 1806 3559 1356 
Q 3559 666 3084 287 
Q 2609 -91 1734 -91 
Q 1441 -91 1130 -33 
Q 819 25 488 141 
L 488 750 
Q 750 597 1062 519 
Q 1375 441 1716 441 
Q 2309 441 2620 675 
Q 2931 909 2931 1356 
Q 2931 1769 2642 2001 
Q 2353 2234 1838 2234 
L 1294 2234 
L 1294 2753 
L 1863 2753 
Q 2328 2753 2575 2939 
Q 2822 3125 2822 3475 
Q 2822 3834 2567 4026 
Q 2313 4219 1838 4219 
Q 1578 4219 1281 4162 
Q 984 4106 628 3988 
L 628 4550 
Q 988 4650 1302 4700 
Q 1616 4750 1894 4750 
Q 2613 4750 3031 4423 
Q 3450 4097 3450 3541 
Q 3450 3153 3228 2886 
Q 3006 2619 2597 2516 
z
" transform="scale(0.015625)"/>
       </defs>
       <use xlink:href="#DejaVuSans-33"/>
       <use xlink:href="#DejaVuSans-2e" x="63.623047"/>
       <use xlink:href="#DejaVuSans-30" x="95.410156"/>
      </g>
     </g>
    </g>
    <g id="xtick_5">
     <g id="line2d_9">
      <path d="M 481.0752 481.2408 
L 481.0752 64.8864 
" clip-path="url(#p8311e48ea2)" style="fill: none; stroke: #b0b0b0; stroke-width: 0.8; stroke-linecap: square"/>
     </g>
     <g id="line2d_10">
      <g>
       <use xlink:href="#m3cceae2c00" x="481.0752" y="481.2408" style="stroke: #000000; stroke-width: 0.8"/>
      </g>
     </g>
     <g id="text_5">
      <!-- 4.0 -->
      <g transform="translate(473.123638 495.839238) scale(0.1 -0.1)">
       <defs>
        <path id="DejaVuSans-34" d="M 2419 4116 
L 825 1625 
L 2419 1625 
L 2419 4116 
z
M 2253 4666 
L 3047 4666 
L 3047 1625 
L 3713 1625 
L 3713 1100 
L 3047 1100 
L 3047 0 
L 2419 0 
L 2419 1100 
L 313 1100 
L 313 1709 
L 2253 4666 
z
" transform="scale(0.015625)"/>
       </defs>
       <use xlink:href="#DejaVuSans-34"/>
       <use xlink:href="#DejaVuSans-2e" x="63.623047"/>
       <use xlink:href="#DejaVuSans-30" x="95.410156"/>
      </g>
     </g>
    </g>
    <g id="xtick_6">
     <g id="line2d_11">
      <path d="M 566.784 481.2408 
L 566.784 64.8864 
" clip-path="url(#p8311e48ea2)" style="fill: none; stroke: #b0b0b0; stroke-width: 0.8; stroke-linecap: square"/>
     </g>
     <g id="line2d_12">
      <g>
       <use xlink:href="#m3cceae2c00" x="566.784" y="481.2408" style="stroke: #000000; stroke-width: 0.8"/>
      </g>
     </g>
     <g id="text_6">
      <!-- 5.0 -->
      <g transform="translate(558.832438 495.839238) scale(0.1 -0.1)">
       <defs>
        <path id="DejaVuSans-35" d="M 691 4666 
L 3169 4666 
L 3169 4134 
L 1269 4134 
L 1269 2991 
Q 1406 3038 1543 3061 
Q 1681 3084 1819 3084 
Q 2600 3084 3056 2656 
Q 3513 2228 3513 1497 
Q 3513 744 3044 326 
Q 2575 -91 1722 -91 
Q 1428 -91 1123 -41 
Q 819 9 494 109 
L 494 744 
Q 775 591 1075 516 
Q 1375 441 1709 441 
Q 2250 441 2565 725 
Q 2881 1009 2881 1497 
Q 2881 1984 2565 2268 
Q 2250 2553 1709 2553 
Q 1456 2553 1204 2497 
Q 953 2441 691 2322 
L 691 4666 
z
" transform="scale(0.015625)"/>
       </defs>
       <use xlink:href="#DejaVuSans-35"/>
       <use xlink:href="#DejaVuSans-2e" x="63.623047"/>
       <use xlink:href="#DejaVuSans-30" x="95.410156"/>
      </g>
     </g>
    </g>
    <g id="xtick_7">
     <g id="line2d_13">
      <path d="M 652.4928 481.2408 
L 652.4928 64.8864 
" clip-path="url(#p8311e48ea2)" style="fill: none; stroke: #b0b0b0; stroke-width: 0.8; stroke-linecap: square"/>
     </g>
     <g id="line2d_14">
      <g>
       <use xlink:href="#m3cceae2c00" x="652.4928" y="481.2408" style="stroke: #000000; stroke-width: 0.8"/>
      </g>
     </g>
     <g id="text_7">
      <!-- 6.0 -->
      <g transform="translate(644.541238 495.839238) scale(0.1 -0.1)">
       <defs>
        <path id="DejaVuSans-36" d="M 2113 2584 
Q 1688 2584 1439 2293 
Q 1191 2003 1191 1497 
Q 1191 994 1439 701 
Q 1688 409 2113 409 
Q 2538 409 2786 701 
Q 3034 994 3034 1497 
Q 3034 2003 2786 2293 
Q 2538 2584 2113 2584 
z
M 3366 4563 
L 3366 3988 
Q 3128 4100 2886 4159 
Q 2644 4219 2406 4219 
Q 1781 4219 1451 3797 
Q 1122 3375 1075 2522 
Q 1259 2794 1537 2939 
Q 1816 3084 2150 3084 
Q 2853 3084 3261 2657 
Q 3669 2231 3669 1497 
Q 3669 778 3244 343 
Q 2819 -91 2113 -91 
Q 1303 -91 875 529 
Q 447 1150 447 2328 
Q 447 3434 972 4092 
Q 1497 4750 2381 4750 
Q 2619 4750 2861 4703 
Q 3103 4656 3366 4563 
z
" transform="scale(0.015625)"/>
       </defs>
       <use xlink:href="#DejaVuSans-36"/>
       <use xlink:href="#DejaVuSans-2e" x="63.623047"/>
       <use xlink:href="#DejaVuSans-30" x="95.410156"/>
      </g>
     </g>
    </g>
    <g id="xtick_8">
     <g id="line2d_15">
      <path d="M 738.2016 481.2408 
L 738.2016 64.8864 
" clip-path="url(#p8311e48ea2)" style="fill: none; stroke: #b0b0b0; stroke-width: 0.8; stroke-linecap: square"/>
     </g>
     <g id="line2d_16">
      <g>
       <use xlink:href="#m3cceae2c00" x="738.2016" y="481.2408" style="stroke: #000000; stroke-width: 0.8"/>
      </g>
     </g>
     <g id="text_8">
      <!-- 7.0 -->
      <g transform="translate(730.250038 495.839238) scale(0.1 -0.1)">
       <defs>
        <path id="DejaVuSans-37" d="M 525 4666 
L 3525 4666 
L 3525 4397 
L 1831 0 
L 1172 0 
L 2766 4134 
L 525 4134 
L 525 4666 
z
" transform="scale(0.015625)"/>
       </defs>
       <use xlink:href="#DejaVuSans-37"/>
       <use xlink:href="#DejaVuSans-2e" x="63.623047"/>
       <use xlink:href="#DejaVuSans-30" x="95.410156"/>
      </g>
     </g>
    </g>
    <g id="xtick_9">
     <g id="line2d_17">
      <path d="M 823.9104 481.2408 
L 823.9104 64.8864 
" clip-path="url(#p8311e48ea2)" style="fill: none; stroke: #b0b0b0; stroke-width: 0.8; stroke-linecap: square"/>
     </g>
     <g id="line2d_18">
      <g>
       <use xlink:href="#m3cceae2c00" x="823.9104" y="481.2408" style="stroke: #000000; stroke-width: 0.8"/>
      </g>
     </g>
     <g id="text_9">
      <!-- 8.0 -->
      <g transform="translate(815.958838 495.839238) scale(0.1 -0.1)">
       <defs>
        <path id="DejaVuSans-38" d="M 2034 2216 
Q 1584 2216 1326 1975 
Q 1069 1734 1069 1313 
Q 1069 891 1326 650 
Q 1584 409 2034 409 
Q 2484 409 2743 651 
Q 3003 894 3003 1313 
Q 3003 1734 2745 1975 
Q 2488 2216 2034 2216 
z
M 1403 2484 
Q 997 2584 770 2862 
Q 544 3141 544 3541 
Q 544 4100 942 4425 
Q 1341 4750 2034 4750 
Q 2731 4750 3128 4425 
Q 3525 4100 3525 3541 
Q 3525 3141 3298 2862 
Q 3072 2584 2669 2484 
Q 3125 2378 3379 2068 
Q 3634 1759 3634 1313 
Q 3634 634 3220 271 
Q 2806 -91 2034 -91 
Q 1263 -91 848 271 
Q 434 634 434 1313 
Q 434 1759 690 2068 
Q 947 2378 1403 2484 
z
M 1172 3481 
Q 1172 3119 1398 2916 
Q 1625 2713 2034 2713 
Q 2441 2713 2670 2916 
Q 2900 3119 2900 3481 
Q 2900 3844 2670 4047 
Q 2441 4250 2034 4250 
Q 1625 4250 1398 4047 
Q 1172 3844 1172 3481 
z
" transform="scale(0.015625)"/>
       </defs>
       <use xlink:href="#DejaVuSans-38"/>
       <use xlink:href="#DejaVuSans-2e" x="63.623047"/>
       <use xlink:href="#DejaVuSans-30" x="95.410156"/>
      </g>
     </g>
    </g>
    <g id="xtick_10">
     <g id="line2d_19">
      <path d="M 909.6192 481.2408 
L 909.6192 64.8864 
" clip-path="url(#p8311e48ea2)" style="fill: none; stroke: #b0b0b0; stroke-width: 0.8; stroke-linecap: square"/>
     </g>
     <g id="line2d_20">
      <g>
       <use xlink:href="#m3cceae2c00" x="909.6192" y="481.2408" style="stroke: #000000; stroke-width: 0.8"/>
      </g>
     </g>
     <g id="text_10">
      <!-- 9.0 -->
      <g transform="translate(901.667638 495.839238) scale(0.1 -0.1)">
       <defs>
        <path id="DejaVuSans-39" d="M 703 97 
L 703 672 
Q 941 559 1184 500 
Q 1428 441 1663 441 
Q 2288 441 2617 861 
Q 2947 1281 2994 2138 
Q 2813 1869 2534 1725 
Q 2256 1581 1919 1581 
Q 1219 1581 811 2004 
Q 403 2428 403 3163 
Q 403 3881 828 4315 
Q 1253 4750 1959 4750 
Q 2769 4750 3195 4129 
Q 3622 3509 3622 2328 
Q 3622 1225 3098 567 
Q 2575 -91 1691 -91 
Q 1453 -91 1209 -44 
Q 966 3 703 97 
z
M 1959 2075 
Q 2384 2075 2632 2365 
Q 2881 2656 2881 3163 
Q 2881 3666 2632 3958 
Q 2384 4250 1959 4250 
Q 1534 4250 1286 3958 
Q 1038 3666 1038 3163 
Q 1038 2656 1286 2365 
Q 1534 2075 1959 2075 
z
" transform="scale(0.015625)"/>
       </defs>
       <use xlink:href="#DejaVuSans-39"/>
       <use xlink:href="#DejaVuSans-2e" x="63.623047"/>
       <use xlink:href="#DejaVuSans-30" x="95.410156"/>
      </g>
     </g>
    </g>
    <g id="xtick_11">
     <g id="line2d_21">
      <path d="M 995.328 481.2408 
L 995.328 64.8864 
" clip-path="url(#p8311e48ea2)" style="fill: none; stroke: #b0b0b0; stroke-width: 0.8; stroke-linecap: square"/>
     </g>
     <g id="line2d_22">
      <g>
       <use xlink:href="#m3cceae2c00" x="995.328" y="481.2408" style="stroke: #000000; stroke-width: 0.8"/>
      </g>
     </g>
     <g id="text_11">
      <!-- l -->
      <g transform="translate(993.938938 495.839238) scale(0.1 -0.1)">
       <defs>
        <path id="DejaVuSans-6c" d="M 603 4863 
L 1178 4863 
L 1178 0 
L 603 0 
L 603 4863 
z
" transform="scale(0.015625)"/>
       </defs>
       <use xlink:href="#DejaVuSans-6c"/>
      </g>
     </g>
    </g>
    <g id="text_12">
     <!-- x -->
     <g transform="translate(563.824625 509.517363) scale(0.1 -0.1)">
      <defs>
       <path id="DejaVuSans-78" d="M 3513 3500 
L 2247 1797 
L 3578 0 
L 2900 0 
L 1881 1375 
L 863 0 
L 184 0 
L 1544 1831 
L 300 3500 
L 978 3500 
L 1906 2253 
L 2834 3500 
L 3513 3500 
z
" transform="scale(0.015625)"/>
      </defs>
      <use xlink:href="#DejaVuSans-78"/>
     </g>
    </g>
   </g>
   <g id="matplotlib.axis_2">
    <g id="ytick_1">
     <g id="line2d_23">
      <path d="M 138.24 462.3156 
L 995.328 462.3156 
" clip-path="url(#p8311e48ea2)" style="fill: none; stroke: #b0b0b0; stroke-width: 0.8; stroke-linecap: square"/>
     </g>
     <g id="line2d_24">
      <defs>
       <path id="me00018b1d6" d="M 0 0 
L -3.5 0 
" style="stroke: #000000; stroke-width: 0.8"/>
      </defs>
      <g>
       <use xlink:href="#me00018b1d6" x="138.24" y="462.3156" style="stroke: #000000; stroke-width: 0.8"/>
      </g>
     </g>
     <g id="text_13">
      <!-- −1 -->
      <g transform="translate(116.497813 466.114819) scale(0.1 -0.1)">
       <defs>
        <path id="DejaVuSans-2212" d="M 678 2272 
L 4684 2272 
L 4684 1741 
L 678 1741 
L 678 2272 
z
" transform="scale(0.015625)"/>
       </defs>
       <use xlink:href="#DejaVuSans-2212"/>
       <use xlink:href="#DejaVuSans-31" x="83.789062"/>
      </g>
     </g>
    </g>
    <g id="ytick_2">
     <g id="line2d_25">
      <path d="M 138.24 385.945491 
L 995.328 385.945491 
" clip-path="url(#p8311e48ea2)" style="fill: none; stroke: #b0b0b0; stroke-width: 0.8; stroke-linecap: square"/>
     </g>
     <g id="line2d_26">
      <g>
       <use xlink:href="#me00018b1d6" x="138.24" y="385.945491" style="stroke: #000000; stroke-width: 0.8"/>
      </g>
     </g>
     <g id="text_14">
      <!-- 0 -->
      <g transform="translate(124.8775 389.74471) scale(0.1 -0.1)">
       <use xlink:href="#DejaVuSans-30"/>
      </g>
     </g>
    </g>
    <g id="ytick_3">
     <g id="line2d_27">
      <path d="M 138.24 309.575383 
L 995.328 309.575383 
" clip-path="url(#p8311e48ea2)" style="fill: none; stroke: #b0b0b0; stroke-width: 0.8; stroke-linecap: square"/>
     </g>
     <g id="line2d_28">
      <g>
       <use xlink:href="#me00018b1d6" x="138.24" y="309.575383" style="stroke: #000000; stroke-width: 0.8"/>
      </g>
     </g>
     <g id="text_15">
      <!-- 1 -->
      <g transform="translate(124.8775 313.374602) scale(0.1 -0.1)">
       <use xlink:href="#DejaVuSans-31"/>
      </g>
     </g>
    </g>
    <g id="ytick_4">
     <g id="line2d_29">
      <path d="M 138.24 233.205274 
L 995.328 233.205274 
" clip-path="url(#p8311e48ea2)" style="fill: none; stroke: #b0b0b0; stroke-width: 0.8; stroke-linecap: square"/>
     </g>
     <g id="line2d_30">
      <g>
       <use xlink:href="#me00018b1d6" x="138.24" y="233.205274" style="stroke: #000000; stroke-width: 0.8"/>
      </g>
     </g>
     <g id="text_16">
      <!-- 2 -->
      <g transform="translate(124.8775 237.004493) scale(0.1 -0.1)">
       <use xlink:href="#DejaVuSans-32"/>
      </g>
     </g>
    </g>
    <g id="ytick_5">
     <g id="line2d_31">
      <path d="M 138.24 156.835166 
L 995.328 156.835166 
" clip-path="url(#p8311e48ea2)" style="fill: none; stroke: #b0b0b0; stroke-width: 0.8; stroke-linecap: square"/>
     </g>
     <g id="line2d_32">
      <g>
       <use xlink:href="#me00018b1d6" x="138.24" y="156.835166" style="stroke: #000000; stroke-width: 0.8"/>
      </g>
     </g>
     <g id="text_17">
      <!-- 3 -->
      <g transform="translate(124.8775 160.634385) scale(0.1 -0.1)">
       <use xlink:href="#DejaVuSans-33"/>
      </g>
     </g>
    </g>
    <g id="ytick_6">
     <g id="line2d_33">
      <path d="M 138.24 80.465057 
L 995.328 80.465057 
" clip-path="url(#p8311e48ea2)" style="fill: none; stroke: #b0b0b0; stroke-width: 0.8; stroke-linecap: square"/>
     </g>
     <g id="line2d_34">
      <g>
       <use xlink:href="#me00018b1d6" x="138.24" y="80.465057" style="stroke: #000000; stroke-width: 0.8"/>
      </g>
     </g>
     <g id="text_18">
      <!-- 4 -->
      <g transform="translate(124.8775 84.264276) scale(0.1 -0.1)">
       <use xlink:href="#DejaVuSans-34"/>
      </g>
     </g>
    </g>
    <g id="text_19">
     <!-- u(x, t) -->
     <g transform="translate(110.418125 288.231569) rotate(-90) scale(0.1 -0.1)">
      <defs>
       <path id="DejaVuSans-75" d="M 544 1381 
L 544 3500 
L 1119 3500 
L 1119 1403 
Q 1119 906 1312 657 
Q 1506 409 1894 409 
Q 2359 409 2629 706 
Q 2900 1003 2900 1516 
L 2900 3500 
L 3475 3500 
L 3475 0 
L 2900 0 
L 2900 538 
Q 2691 219 2414 64 
Q 2138 -91 1772 -91 
Q 1169 -91 856 284 
Q 544 659 544 1381 
z
M 1991 3584 
L 1991 3584 
z
" transform="scale(0.015625)"/>
       <path id="DejaVuSans-28" d="M 1984 4856 
Q 1566 4138 1362 3434 
Q 1159 2731 1159 2009 
Q 1159 1288 1364 580 
Q 1569 -128 1984 -844 
L 1484 -844 
Q 1016 -109 783 600 
Q 550 1309 550 2009 
Q 550 2706 781 3412 
Q 1013 4119 1484 4856 
L 1984 4856 
z
" transform="scale(0.015625)"/>
       <path id="DejaVuSans-2c" d="M 750 794 
L 1409 794 
L 1409 256 
L 897 -744 
L 494 -744 
L 750 256 
L 750 794 
z
" transform="scale(0.015625)"/>
       <path id="DejaVuSans-20" transform="scale(0.015625)"/>
       <path id="DejaVuSans-74" d="M 1172 4494 
L 1172 3500 
L 2356 3500 
L 2356 3053 
L 1172 3053 
L 1172 1153 
Q 1172 725 1289 603 
Q 1406 481 1766 481 
L 2356 481 
L 2356 0 
L 1766 0 
Q 1100 0 847 248 
Q 594 497 594 1153 
L 594 3053 
L 172 3053 
L 172 3500 
L 594 3500 
L 594 4494 
L 1172 4494 
z
" transform="scale(0.015625)"/>
       <path id="DejaVuSans-29" d="M 513 4856 
L 1013 4856 
Q 1481 4119 1714 3412 
Q 1947 2706 1947 2009 
Q 1947 1309 1714 600 
Q 1481 -109 1013 -844 
L 513 -844 
Q 928 -128 1133 580 
Q 1338 1288 1338 2009 
Q 1338 2731 1133 3434 
Q 928 4138 513 4856 
z
" transform="scale(0.015625)"/>
      </defs>
      <use xlink:href="#DejaVuSans-75"/>
      <use xlink:href="#DejaVuSans-28" x="63.378906"/>
      <use xlink:href="#DejaVuSans-78" x="102.392578"/>
      <use xlink:href="#DejaVuSans-2c" x="161.572266"/>
      <use xlink:href="#DejaVuSans-20" x="193.359375"/>
      <use xlink:href="#DejaVuSans-74" x="225.146484"/>
      <use xlink:href="#DejaVuSans-29" x="264.355469"/>
     </g>
    </g>
   </g>
   <g id="line2d_35">
    <path d="M 138.24 385.945491 
L 146.81088 385.945491 
L 155.38176 385.945491 
L 163.95264 385.945491 
L 172.52352 385.945491 
L 181.0944 385.945491 
L 189.66528 385.945491 
L 198.23616 385.945491 
L 206.80704 385.945491 
L 215.37792 385.945491 
L 223.9488 385.945491 
L 232.51968 385.945491 
L 241.09056 385.945491 
L 249.66144 385.945491 
L 258.23232 385.945491 
L 266.8032 385.945491 
L 275.37408 385.945491 
L 283.94496 385.945491 
L 292.51584 385.945491 
L 301.08672 385.945491 
L 309.6576 385.945491 
L 318.22848 385.945491 
L 326.79936 385.945491 
L 335.37024 385.945491 
L 343.94112 385.945491 
L 352.512 385.945491 
L 361.08288 385.945491 
L 369.65376 385.945491 
L 378.22464 385.945491 
L 386.79552 385.945491 
L 395.3664 385.945491 
L 403.93728 385.945491 
L 412.50816 385.945491 
L 421.07904 385.945491 
L 429.64992 385.945491 
L 438.2208 385.945491 
L 446.79168 385.945491 
L 455.36256 385.945491 
L 463.93344 385.945491 
L 472.50432 385.945491 
L 481.0752 385.945491 
L 489.64608 385.945491 
L 498.21696 385.945491 
L 506.78784 385.945491 
L 515.35872 385.945491 
L 523.9296 385.945491 
L 532.50048 385.945491 
L 541.07136 385.945491 
L 549.64224 385.945491 
L 558.21312 385.945491 
L 566.784 385.945491 
L 575.35488 385.945491 
L 583.92576 385.945491 
L 592.49664 385.945491 
L 601.06752 385.945491 
L 609.6384 385.945491 
L 618.20928 385.945491 
L 626.78016 385.945491 
L 635.35104 385.945491 
L 643.92192 385.945491 
L 652.4928 385.945491 
L 661.06368 385.945491 
L 669.63456 385.945491 
L 678.20544 385.945491 
L 686.77632 385.945491 
L 695.3472 385.945491 
L 703.91808 385.945491 
L 712.48896 385.945491 
L 721.05984 385.945491 
L 729.63072 385.945491 
L 738.2016 385.945491 
L 746.77248 385.945491 
L 755.34336 385.945491 
L 763.91424 385.945491 
L 772.48512 385.945491 
L 781.056 385.945491 
L 789.62688 385.945491 
L 798.19776 385.945491 
L 806.76864 385.945491 
L 815.33952 385.945491 
L 823.9104 385.945491 
L 832.48128 385.945491 
L 841.05216 385.945491 
L 849.62304 385.945491 
L 858.19392 385.945491 
L 866.7648 385.945491 
L 875.33568 385.945491 
L 883.90656 385.945491 
L 892.47744 385.945491 
L 901.04832 385.945491 
L 909.6192 385.945491 
L 918.19008 385.945491 
L 926.76096 385.945491 
L 935.33184 385.945491 
L 943.90272 385.945491 
L 952.4736 385.945491 
L 961.04448 385.945491 
L 969.61536 385.945491 
L 978.18624 385.945491 
L 986.75712 385.945491 
L 995.328 385.945491 
L 1003.89888 385.945491 
L 1012.46976 385.945491 
L 1021.04064 385.945491 
L 1029.61152 385.945491 
L 1038.1824 385.945491 
L 1046.75328 385.945491 
L 1055.32416 385.945491 
L 1063.89504 385.945491 
L 1072.46592 385.945491 
" clip-path="url(#p8311e48ea2)" style="fill: none; stroke-dasharray: 2.59,1.12; stroke-dashoffset: 0; stroke: #1f77b4; stroke-width: 0.7"/>
   </g>
   <g id="line2d_36">
    <path d="M 138.24 385.945491 
L 146.81088 383.546648 
L 155.38176 381.150173 
L 163.95264 378.758429 
L 172.52352 376.373779 
L 181.0944 373.998574 
L 189.66528 371.63516 
L 198.23616 369.285868 
L 206.80704 366.953018 
L 215.37792 364.63891 
L 223.9488 362.34583 
L 232.51968 360.07604 
L 241.09056 357.831779 
L 249.66144 355.615264 
L 258.23232 353.428681 
L 266.8032 351.274188 
L 275.37408 349.153911 
L 283.94496 347.069943 
L 292.51584 345.024341 
L 301.08672 343.019123 
L 309.6576 341.056268 
L 318.22848 339.137713 
L 326.79936 337.265352 
L 335.37024 335.441033 
L 343.94112 333.666555 
L 352.512 331.94367 
L 361.08288 330.274078 
L 369.65376 328.659428 
L 378.22464 327.101311 
L 386.79552 325.601267 
L 395.3664 324.160776 
L 403.93728 322.781258 
L 412.50816 321.464076 
L 421.07904 320.210529 
L 429.64992 319.021855 
L 438.2208 317.899226 
L 446.79168 316.843751 
L 455.36256 315.856471 
L 463.93344 314.93836 
L 472.50432 314.090325 
L 481.0752 313.313202 
L 489.64608 312.607758 
L 498.21696 311.97469 
L 506.78784 311.414622 
L 515.35872 310.928108 
L 523.9296 310.515626 
L 532.50048 310.177584 
L 541.07136 309.914316 
L 549.64224 309.726082 
L 558.21312 309.613067 
L 566.784 309.575383 
L 575.35488 309.613067 
L 583.92576 309.726082 
L 592.49664 309.914316 
L 601.06752 310.177584 
L 609.6384 310.515626 
L 618.20928 310.928108 
L 626.78016 311.414622 
L 635.35104 311.97469 
L 643.92192 312.607758 
L 652.4928 313.313202 
L 661.06368 314.090325 
L 669.63456 314.93836 
L 678.20544 315.856471 
L 686.77632 316.843751 
L 695.3472 317.899226 
L 703.91808 319.021855 
L 712.48896 320.210529 
L 721.05984 321.464076 
L 729.63072 322.781258 
L 738.2016 324.160776 
L 746.77248 325.601267 
L 755.34336 327.101311 
L 763.91424 328.659428 
L 772.48512 330.274078 
L 781.056 331.94367 
L 789.62688 333.666555 
L 798.19776 335.441033 
L 806.76864 337.265352 
L 815.33952 339.137713 
L 823.9104 341.056268 
L 832.48128 343.019123 
L 841.05216 345.024341 
L 849.62304 347.069943 
L 858.19392 349.153911 
L 866.7648 351.274188 
L 875.33568 353.428681 
L 883.90656 355.615264 
L 892.47744 357.831779 
L 901.04832 360.07604 
L 909.6192 362.34583 
L 918.19008 364.63891 
L 926.76096 366.953018 
L 935.33184 369.285868 
L 943.90272 371.63516 
L 952.4736 373.998574 
L 961.04448 376.373779 
L 969.61536 378.758429 
L 978.18624 381.150173 
L 986.75712 383.546648 
L 995.328 385.945491 
L 1003.89888 388.344335 
L 1012.46976 390.74081 
L 1021.04064 393.132554 
L 1029.61152 395.517204 
L 1038.1824 397.892409 
L 1046.75328 400.255823 
L 1055.32416 402.605114 
L 1063.89504 404.937965 
L 1072.46592 407.252073 
" clip-path="url(#p8311e48ea2)" style="fill: none; stroke-dasharray: 2.59,1.12; stroke-dashoffset: 0; stroke: #ff7f0e; stroke-width: 0.7"/>
   </g>
   <g id="line2d_37">
    <path d="M 138.24 385.945491 
L 146.81088 381.150173 
L 155.38176 376.373779 
L 163.95264 371.63516 
L 172.52352 366.953018 
L 181.0944 362.34583 
L 189.66528 357.831779 
L 198.23616 353.428681 
L 206.80704 349.153911 
L 215.37792 345.024341 
L 223.9488 341.056268 
L 232.51968 337.265352 
L 241.09056 333.666555 
L 249.66144 330.274078 
L 258.23232 327.101311 
L 266.8032 324.160776 
L 275.37408 321.464076 
L 283.94496 319.021855 
L 292.51584 316.843751 
L 301.08672 314.93836 
L 309.6576 313.313202 
L 318.22848 311.97469 
L 326.79936 310.928108 
L 335.37024 310.177584 
L 343.94112 309.726082 
L 352.512 309.575383 
L 361.08288 309.726082 
L 369.65376 310.177584 
L 378.22464 310.928108 
L 386.79552 311.97469 
L 395.3664 313.313202 
L 403.93728 314.93836 
L 412.50816 316.843751 
L 421.07904 319.021855 
L 429.64992 321.464076 
L 438.2208 324.160776 
L 446.79168 327.101311 
L 455.36256 330.274078 
L 463.93344 333.666555 
L 472.50432 337.265352 
L 481.0752 341.056268 
L 489.64608 345.024341 
L 498.21696 349.153911 
L 506.78784 353.428681 
L 515.35872 357.831779 
L 523.9296 362.34583 
L 532.50048 366.953018 
L 541.07136 371.63516 
L 549.64224 376.373779 
L 558.21312 381.150173 
L 566.784 385.945491 
L 575.35488 390.74081 
L 583.92576 395.517204 
L 592.49664 400.255823 
L 601.06752 404.937965 
L 609.6384 409.545153 
L 618.20928 414.059204 
L 626.78016 418.462302 
L 635.35104 422.737072 
L 643.92192 426.866642 
L 652.4928 430.834715 
L 661.06368 434.625631 
L 669.63456 438.224428 
L 678.20544 441.616905 
L 686.77632 444.789671 
L 695.3472 447.730207 
L 703.91808 450.426907 
L 712.48896 452.869128 
L 721.05984 455.047232 
L 729.63072 456.952623 
L 738.2016 458.577781 
L 746.77248 459.916293 
L 755.34336 460.962875 
L 763.91424 461.713399 
L 772.48512 462.164901 
L 781.056 462.3156 
L 789.62688 462.164901 
L 798.19776 461.713399 
L 806.76864 460.962875 
L 815.33952 459.916293 
L 823.9104 458.577781 
L 832.48128 456.952623 
L 841.05216 455.047232 
L 849.62304 452.869128 
L 858.19392 450.426907 
L 866.7648 447.730207 
L 875.33568 444.789671 
L 883.90656 441.616905 
L 892.47744 438.224428 
L 901.04832 434.625631 
L 909.6192 430.834715 
L 918.19008 426.866642 
L 926.76096 422.737072 
L 935.33184 418.462302 
L 943.90272 414.059204 
L 952.4736 409.545153 
L 961.04448 404.937965 
L 969.61536 400.255823 
L 978.18624 395.517204 
L 986.75712 390.74081 
L 995.328 385.945491 
L 1003.89888 381.150173 
L 1012.46976 376.373779 
L 1021.04064 371.63516 
L 1029.61152 366.953018 
L 1038.1824 362.34583 
L 1046.75328 357.831779 
L 1055.32416 353.428681 
L 1063.89504 349.153911 
L 1072.46592 345.024341 
" clip-path="url(#p8311e48ea2)" style="fill: none; stroke-dasharray: 2.59,1.12; stroke-dashoffset: 0; stroke: #2ca02c; stroke-width: 0.7"/>
   </g>
   <g id="line2d_38">
    <path d="M 138.24 385.945491 
L 146.81088 378.758429 
L 155.38176 371.63516 
L 163.95264 364.63891 
L 172.52352 357.831779 
L 181.0944 351.274188 
L 189.66528 345.024341 
L 198.23616 339.137713 
L 206.80704 333.666555 
L 215.37792 328.659428 
L 223.9488 324.160776 
L 232.51968 320.210529 
L 241.09056 316.843751 
L 249.66144 314.090325 
L 258.23232 311.97469 
L 266.8032 310.515626 
L 275.37408 309.726082 
L 283.94496 309.613067 
L 292.51584 310.177584 
L 301.08672 311.414622 
L 309.6576 313.313202 
L 318.22848 315.856471 
L 326.79936 319.021855 
L 335.37024 322.781258 
L 343.94112 327.101311 
L 352.512 331.94367 
L 361.08288 337.265352 
L 369.65376 343.019123 
L 378.22464 349.153911 
L 386.79552 355.615264 
L 395.3664 362.34583 
L 403.93728 369.285868 
L 412.50816 376.373779 
L 421.07904 383.546648 
L 429.64992 390.74081 
L 438.2208 397.892409 
L 446.79168 404.937965 
L 455.36256 411.814943 
L 463.93344 418.462302 
L 472.50432 424.82104 
L 481.0752 430.834715 
L 489.64608 436.44995 
L 498.21696 441.616905 
L 506.78784 446.289716 
L 515.35872 450.426907 
L 523.9296 453.991756 
L 532.50048 456.952623 
L 541.07136 459.283224 
L 549.64224 460.962875 
L 558.21312 461.976667 
L 566.784 462.3156 
L 575.35488 461.976667 
L 583.92576 460.962875 
L 592.49664 459.283224 
L 601.06752 456.952623 
L 609.6384 453.991756 
L 618.20928 450.426907 
L 626.78016 446.289716 
L 635.35104 441.616905 
L 643.92192 436.44995 
L 652.4928 430.834715 
L 661.06368 424.82104 
L 669.63456 418.462302 
L 678.20544 411.814943 
L 686.77632 404.937965 
L 695.3472 397.892409 
L 703.91808 390.74081 
L 712.48896 383.546648 
L 721.05984 376.373779 
L 729.63072 369.285868 
L 738.2016 362.34583 
L 746.77248 355.615264 
L 755.34336 349.153911 
L 763.91424 343.019123 
L 772.48512 337.265352 
L 781.056 331.94367 
L 789.62688 327.101311 
L 798.19776 322.781258 
L 806.76864 319.021855 
L 815.33952 315.856471 
L 823.9104 313.313202 
L 832.48128 311.414622 
L 841.05216 310.177584 
L 849.62304 309.613067 
L 858.19392 309.726082 
L 866.7648 310.515626 
L 875.33568 311.97469 
L 883.90656 314.090325 
L 892.47744 316.843751 
L 901.04832 320.210529 
L 909.6192 324.160776 
L 918.19008 328.659428 
L 926.76096 333.666555 
L 935.33184 339.137713 
L 943.90272 345.024341 
L 952.4736 351.274188 
L 961.04448 357.831779 
L 969.61536 364.63891 
L 978.18624 371.63516 
L 986.75712 378.758429 
L 995.328 385.945491 
L 1003.89888 393.132554 
L 1012.46976 400.255823 
L 1021.04064 407.252073 
L 1029.61152 414.059204 
L 1038.1824 420.616795 
L 1046.75328 426.866642 
L 1055.32416 432.75327 
L 1063.89504 438.224428 
L 1072.46592 443.231555 
" clip-path="url(#p8311e48ea2)" style="fill: none; stroke-dasharray: 2.59,1.12; stroke-dashoffset: 0; stroke: #d62728; stroke-width: 0.7"/>
   </g>
   <g id="line2d_39">
    <path d="M 138.24 385.945491 
L 146.81088 376.373779 
L 155.38176 366.953018 
L 163.95264 357.831779 
L 172.52352 349.153911 
L 181.0944 341.056268 
L 189.66528 333.666555 
L 198.23616 327.101311 
L 206.80704 321.464076 
L 215.37792 316.843751 
L 223.9488 313.313202 
L 232.51968 310.928108 
L 241.09056 309.726082 
L 249.66144 309.726082 
L 258.23232 310.928108 
L 266.8032 313.313202 
L 275.37408 316.843751 
L 283.94496 321.464076 
L 292.51584 327.101311 
L 301.08672 333.666555 
L 309.6576 341.056268 
L 318.22848 349.153911 
L 326.79936 357.831779 
L 335.37024 366.953018 
L 343.94112 376.373779 
L 352.512 385.945491 
L 361.08288 395.517204 
L 369.65376 404.937965 
L 378.22464 414.059204 
L 386.79552 422.737072 
L 395.3664 430.834715 
L 403.93728 438.224428 
L 412.50816 444.789671 
L 421.07904 450.426907 
L 429.64992 455.047232 
L 438.2208 458.577781 
L 446.79168 460.962875 
L 455.36256 462.164901 
L 463.93344 462.164901 
L 472.50432 460.962875 
L 481.0752 458.577781 
L 489.64608 455.047232 
L 498.21696 450.426907 
L 506.78784 444.789671 
L 515.35872 438.224428 
L 523.9296 430.834715 
L 532.50048 422.737072 
L 541.07136 414.059204 
L 549.64224 404.937965 
L 558.21312 395.517204 
L 566.784 385.945491 
L 575.35488 376.373779 
L 583.92576 366.953018 
L 592.49664 357.831779 
L 601.06752 349.153911 
L 609.6384 341.056268 
L 618.20928 333.666555 
L 626.78016 327.101311 
L 635.35104 321.464076 
L 643.92192 316.843751 
L 652.4928 313.313202 
L 661.06368 310.928108 
L 669.63456 309.726082 
L 678.20544 309.726082 
L 686.77632 310.928108 
L 695.3472 313.313202 
L 703.91808 316.843751 
L 712.48896 321.464076 
L 721.05984 327.101311 
L 729.63072 333.666555 
L 738.2016 341.056268 
L 746.77248 349.153911 
L 755.34336 357.831779 
L 763.91424 366.953018 
L 772.48512 376.373779 
L 781.056 385.945491 
L 789.62688 395.517204 
L 798.19776 404.937965 
L 806.76864 414.059204 
L 815.33952 422.737072 
L 823.9104 430.834715 
L 832.48128 438.224428 
L 841.05216 444.789671 
L 849.62304 450.426907 
L 858.19392 455.047232 
L 866.7648 458.577781 
L 875.33568 460.962875 
L 883.90656 462.164901 
L 892.47744 462.164901 
L 901.04832 460.962875 
L 909.6192 458.577781 
L 918.19008 455.047232 
L 926.76096 450.426907 
L 935.33184 444.789671 
L 943.90272 438.224428 
L 952.4736 430.834715 
L 961.04448 422.737072 
L 969.61536 414.059204 
L 978.18624 404.937965 
L 986.75712 395.517204 
L 995.328 385.945491 
L 1003.89888 376.373779 
L 1012.46976 366.953018 
L 1021.04064 357.831779 
L 1029.61152 349.153911 
L 1038.1824 341.056268 
L 1046.75328 333.666555 
L 1055.32416 327.101311 
L 1063.89504 321.464076 
L 1072.46592 316.843751 
" clip-path="url(#p8311e48ea2)" style="fill: none; stroke-dasharray: 2.59,1.12; stroke-dashoffset: 0; stroke: #9467bd; stroke-width: 0.7"/>
   </g>
   <g id="line2d_40">
    <path d="M 138.24 385.945491 
L 146.81088 373.998574 
L 155.38176 362.34583 
L 163.95264 351.274188 
L 172.52352 341.056268 
L 181.0944 331.94367 
L 189.66528 324.160776 
L 198.23616 317.899226 
L 206.80704 313.313202 
L 215.37792 310.515626 
L 223.9488 309.575383 
L 232.51968 310.515626 
L 241.09056 313.313202 
L 249.66144 317.899226 
L 258.23232 324.160776 
L 266.8032 331.94367 
L 275.37408 341.056268 
L 283.94496 351.274188 
L 292.51584 362.34583 
L 301.08672 373.998574 
L 309.6576 385.945491 
L 318.22848 397.892409 
L 326.79936 409.545153 
L 335.37024 420.616795 
L 343.94112 430.834715 
L 352.512 439.947313 
L 361.08288 447.730207 
L 369.65376 453.991756 
L 378.22464 458.577781 
L 386.79552 461.375357 
L 395.3664 462.3156 
L 403.93728 461.375357 
L 412.50816 458.577781 
L 421.07904 453.991756 
L 429.64992 447.730207 
L 438.2208 439.947313 
L 446.79168 430.834715 
L 455.36256 420.616795 
L 463.93344 409.545153 
L 472.50432 397.892409 
L 481.0752 385.945491 
L 489.64608 373.998574 
L 498.21696 362.34583 
L 506.78784 351.274188 
L 515.35872 341.056268 
L 523.9296 331.94367 
L 532.50048 324.160776 
L 541.07136 317.899226 
L 549.64224 313.313202 
L 558.21312 310.515626 
L 566.784 309.575383 
L 575.35488 310.515626 
L 583.92576 313.313202 
L 592.49664 317.899226 
L 601.06752 324.160776 
L 609.6384 331.94367 
L 618.20928 341.056268 
L 626.78016 351.274188 
L 635.35104 362.34583 
L 643.92192 373.998574 
L 652.4928 385.945491 
L 661.06368 397.892409 
L 669.63456 409.545153 
L 678.20544 420.616795 
L 686.77632 430.834715 
L 695.3472 439.947313 
L 703.91808 447.730207 
L 712.48896 453.991756 
L 721.05984 458.577781 
L 729.63072 461.375357 
L 738.2016 462.3156 
L 746.77248 461.375357 
L 755.34336 458.577781 
L 763.91424 453.991756 
L 772.48512 447.730207 
L 781.056 439.947313 
L 789.62688 430.834715 
L 798.19776 420.616795 
L 806.76864 409.545153 
L 815.33952 397.892409 
L 823.9104 385.945491 
L 832.48128 373.998574 
L 841.05216 362.34583 
L 849.62304 351.274188 
L 858.19392 341.056268 
L 866.7648 331.94367 
L 875.33568 324.160776 
L 883.90656 317.899226 
L 892.47744 313.313202 
L 901.04832 310.515626 
L 909.6192 309.575383 
L 918.19008 310.515626 
L 926.76096 313.313202 
L 935.33184 317.899226 
L 943.90272 324.160776 
L 952.4736 331.94367 
L 961.04448 341.056268 
L 969.61536 351.274188 
L 978.18624 362.34583 
L 986.75712 373.998574 
L 995.328 385.945491 
L 1003.89888 397.892409 
L 1012.46976 409.545153 
L 1021.04064 420.616795 
L 1029.61152 430.834715 
L 1038.1824 439.947313 
L 1046.75328 447.730207 
L 1055.32416 453.991756 
L 1063.89504 458.577781 
L 1072.46592 461.375357 
" clip-path="url(#p8311e48ea2)" style="fill: none; stroke-dasharray: 2.59,1.12; stroke-dashoffset: 0; stroke: #8c564b; stroke-width: 0.7"/>
   </g>
   <g id="line2d_41">
    <path d="M 138.24 385.945491 
L 146.81088 350.045638 
L 155.38176 314.675994 
L 163.95264 280.356501 
L 172.52352 247.586789 
L 181.0944 216.836564 
L 189.66528 188.536645 
L 198.23616 163.070835 
L 206.80704 140.768796 
L 215.37792 121.90009 
L 223.9488 106.669493 
L 232.51968 95.213689 
L 241.09056 87.599403 
L 249.66144 83.82301 
L 258.23232 83.8116 
L 266.8032 87.425495 
L 275.37408 94.462122 
L 283.94496 104.661163 
L 292.51584 117.710852 
L 301.08672 133.255269 
L 309.6576 150.902466 
L 318.22848 170.233228 
L 326.79936 190.810281 
L 335.37024 212.187722 
L 343.94112 233.920476 
L 352.512 255.573561 
L 361.08288 276.730958 
L 369.65376 297.00389 
L 378.22464 316.038349 
L 386.79552 333.521685 
L 395.3664 349.188157 
L 403.93728 362.823307 
L 412.50816 374.267093 
L 421.07904 383.41573 
L 429.64992 390.222215 
L 438.2208 394.695539 
L 446.79168 396.898652 
L 455.36256 396.945223 
L 463.93344 394.995305 
L 472.50432 391.250035 
L 481.0752 385.945491 
L 489.64608 379.34589 
L 498.21696 371.736277 
L 506.78784 363.414912 
L 515.35872 354.685524 
L 523.9296 345.849631 
L 532.50048 337.199106 
L 541.07136 329.009165 
L 549.64224 321.531937 
L 558.21312 314.99077 
L 566.784 309.575383 
L 575.35488 305.437983 
L 583.92576 302.690415 
L 592.49664 301.402403 
L 601.06752 301.600893 
L 609.6384 303.270507 
L 618.20928 306.355075 
L 626.78016 310.760173 
L 635.35104 316.356607 
L 643.92192 322.984711 
L 652.4928 330.45936 
L 661.06368 338.575546 
L 669.63456 347.11436 
L 678.20544 355.84923 
L 686.77632 364.552244 
L 695.3472 373.000391 
L 703.91808 380.981565 
L 712.48896 388.300172 
L 721.05984 394.782213 
L 729.63072 400.279695 
L 738.2016 404.674289 
L 746.77248 407.880126 
L 755.34336 409.845692 
L 763.91424 410.554758 
L 772.48512 410.026352 
L 781.056 408.313778 
L 789.62688 405.50272 
L 798.19776 401.708484 
L 806.76864 397.072473 
L 815.33952 391.757991 
L 823.9104 385.945491 
L 832.48128 379.827405 
L 841.05216 373.602692 
L 849.62304 367.471267 
L 858.19392 361.628434 
L 866.7648 356.259505 
L 875.33568 351.534728 
L 883.90656 347.604655 
L 892.47744 344.596096 
L 901.04832 342.608735 
L 909.6192 341.712519 
L 918.19008 341.945872 
L 926.76096 343.314787 
L 935.33184 345.792816 
L 943.90272 349.321943 
L 952.4736 353.814334 
L 961.04448 359.154897 
L 969.61536 365.204588 
L 978.18624 371.804366 
L 986.75712 378.779701 
L 995.328 385.945491 
L 1003.89888 393.111282 
L 1012.46976 400.086617 
L 1021.04064 406.686395 
L 1029.61152 412.736086 
L 1038.1824 418.076649 
L 1046.75328 422.56904 
L 1055.32416 426.098167 
L 1063.89504 428.576196 
L 1072.46592 429.945111 
" clip-path="url(#p8311e48ea2)" style="fill: none; stroke: #000000; stroke-width: 1.5; stroke-linecap: square"/>
   </g>
   <g id="patch_3">
    <path d="M 138.24 481.2408 
L 138.24 64.8864 
" style="fill: none; stroke: #000000; stroke-width: 0.8; stroke-linejoin: miter; stroke-linecap: square"/>
   </g>
   <g id="patch_4">
    <path d="M 995.328 481.2408 
L 995.328 64.8864 
" style="fill: none; stroke: #000000; stroke-width: 0.8; stroke-linejoin: miter; stroke-linecap: square"/>
   </g>
   <g id="patch_5">
    <path d="M 138.24 481.2408 
L 995.328 481.2408 
" style="fill: none; stroke: #000000; stroke-width: 0.8; stroke-linejoin: miter; stroke-linecap: square"/>
   </g>
   <g id="patch_6">
    <path d="M 138.24 64.8864 
L 995.328 64.8864 
" style="fill: none; stroke: #000000; stroke-width: 0.8; stroke-linejoin: miter; stroke-linecap: square"/>
   </g>
   <g id="text_20">
    <!-- Plotting av u(x, t), med visning av stående bølger bak -->
    <g transform="translate(405.030563 58.8864) scale(0.12 -0.12)">
     <defs>
      <path id="DejaVuSans-50" d="M 1259 4147 
L 1259 2394 
L 2053 2394 
Q 2494 2394 2734 2622 
Q 2975 2850 2975 3272 
Q 2975 3691 2734 3919 
Q 2494 4147 2053 4147 
L 1259 4147 
z
M 628 4666 
L 2053 4666 
Q 2838 4666 3239 4311 
Q 3641 3956 3641 3272 
Q 3641 2581 3239 2228 
Q 2838 1875 2053 1875 
L 1259 1875 
L 1259 0 
L 628 0 
L 628 4666 
z
" transform="scale(0.015625)"/>
      <path id="DejaVuSans-6f" d="M 1959 3097 
Q 1497 3097 1228 2736 
Q 959 2375 959 1747 
Q 959 1119 1226 758 
Q 1494 397 1959 397 
Q 2419 397 2687 759 
Q 2956 1122 2956 1747 
Q 2956 2369 2687 2733 
Q 2419 3097 1959 3097 
z
M 1959 3584 
Q 2709 3584 3137 3096 
Q 3566 2609 3566 1747 
Q 3566 888 3137 398 
Q 2709 -91 1959 -91 
Q 1206 -91 779 398 
Q 353 888 353 1747 
Q 353 2609 779 3096 
Q 1206 3584 1959 3584 
z
" transform="scale(0.015625)"/>
      <path id="DejaVuSans-69" d="M 603 3500 
L 1178 3500 
L 1178 0 
L 603 0 
L 603 3500 
z
M 603 4863 
L 1178 4863 
L 1178 4134 
L 603 4134 
L 603 4863 
z
" transform="scale(0.015625)"/>
      <path id="DejaVuSans-6e" d="M 3513 2113 
L 3513 0 
L 2938 0 
L 2938 2094 
Q 2938 2591 2744 2837 
Q 2550 3084 2163 3084 
Q 1697 3084 1428 2787 
Q 1159 2491 1159 1978 
L 1159 0 
L 581 0 
L 581 3500 
L 1159 3500 
L 1159 2956 
Q 1366 3272 1645 3428 
Q 1925 3584 2291 3584 
Q 2894 3584 3203 3211 
Q 3513 2838 3513 2113 
z
" transform="scale(0.015625)"/>
      <path id="DejaVuSans-67" d="M 2906 1791 
Q 2906 2416 2648 2759 
Q 2391 3103 1925 3103 
Q 1463 3103 1205 2759 
Q 947 2416 947 1791 
Q 947 1169 1205 825 
Q 1463 481 1925 481 
Q 2391 481 2648 825 
Q 2906 1169 2906 1791 
z
M 3481 434 
Q 3481 -459 3084 -895 
Q 2688 -1331 1869 -1331 
Q 1566 -1331 1297 -1286 
Q 1028 -1241 775 -1147 
L 775 -588 
Q 1028 -725 1275 -790 
Q 1522 -856 1778 -856 
Q 2344 -856 2625 -561 
Q 2906 -266 2906 331 
L 2906 616 
Q 2728 306 2450 153 
Q 2172 0 1784 0 
Q 1141 0 747 490 
Q 353 981 353 1791 
Q 353 2603 747 3093 
Q 1141 3584 1784 3584 
Q 2172 3584 2450 3431 
Q 2728 3278 2906 2969 
L 2906 3500 
L 3481 3500 
L 3481 434 
z
" transform="scale(0.015625)"/>
      <path id="DejaVuSans-61" d="M 2194 1759 
Q 1497 1759 1228 1600 
Q 959 1441 959 1056 
Q 959 750 1161 570 
Q 1363 391 1709 391 
Q 2188 391 2477 730 
Q 2766 1069 2766 1631 
L 2766 1759 
L 2194 1759 
z
M 3341 1997 
L 3341 0 
L 2766 0 
L 2766 531 
Q 2569 213 2275 61 
Q 1981 -91 1556 -91 
Q 1019 -91 701 211 
Q 384 513 384 1019 
Q 384 1609 779 1909 
Q 1175 2209 1959 2209 
L 2766 2209 
L 2766 2266 
Q 2766 2663 2505 2880 
Q 2244 3097 1772 3097 
Q 1472 3097 1187 3025 
Q 903 2953 641 2809 
L 641 3341 
Q 956 3463 1253 3523 
Q 1550 3584 1831 3584 
Q 2591 3584 2966 3190 
Q 3341 2797 3341 1997 
z
" transform="scale(0.015625)"/>
      <path id="DejaVuSans-76" d="M 191 3500 
L 800 3500 
L 1894 563 
L 2988 3500 
L 3597 3500 
L 2284 0 
L 1503 0 
L 191 3500 
z
" transform="scale(0.015625)"/>
      <path id="DejaVuSans-6d" d="M 3328 2828 
Q 3544 3216 3844 3400 
Q 4144 3584 4550 3584 
Q 5097 3584 5394 3201 
Q 5691 2819 5691 2113 
L 5691 0 
L 5113 0 
L 5113 2094 
Q 5113 2597 4934 2840 
Q 4756 3084 4391 3084 
Q 3944 3084 3684 2787 
Q 3425 2491 3425 1978 
L 3425 0 
L 2847 0 
L 2847 2094 
Q 2847 2600 2669 2842 
Q 2491 3084 2119 3084 
Q 1678 3084 1418 2786 
Q 1159 2488 1159 1978 
L 1159 0 
L 581 0 
L 581 3500 
L 1159 3500 
L 1159 2956 
Q 1356 3278 1631 3431 
Q 1906 3584 2284 3584 
Q 2666 3584 2933 3390 
Q 3200 3197 3328 2828 
z
" transform="scale(0.015625)"/>
      <path id="DejaVuSans-65" d="M 3597 1894 
L 3597 1613 
L 953 1613 
Q 991 1019 1311 708 
Q 1631 397 2203 397 
Q 2534 397 2845 478 
Q 3156 559 3463 722 
L 3463 178 
Q 3153 47 2828 -22 
Q 2503 -91 2169 -91 
Q 1331 -91 842 396 
Q 353 884 353 1716 
Q 353 2575 817 3079 
Q 1281 3584 2069 3584 
Q 2775 3584 3186 3129 
Q 3597 2675 3597 1894 
z
M 3022 2063 
Q 3016 2534 2758 2815 
Q 2500 3097 2075 3097 
Q 1594 3097 1305 2825 
Q 1016 2553 972 2059 
L 3022 2063 
z
" transform="scale(0.015625)"/>
      <path id="DejaVuSans-64" d="M 2906 2969 
L 2906 4863 
L 3481 4863 
L 3481 0 
L 2906 0 
L 2906 525 
Q 2725 213 2448 61 
Q 2172 -91 1784 -91 
Q 1150 -91 751 415 
Q 353 922 353 1747 
Q 353 2572 751 3078 
Q 1150 3584 1784 3584 
Q 2172 3584 2448 3432 
Q 2725 3281 2906 2969 
z
M 947 1747 
Q 947 1113 1208 752 
Q 1469 391 1925 391 
Q 2381 391 2643 752 
Q 2906 1113 2906 1747 
Q 2906 2381 2643 2742 
Q 2381 3103 1925 3103 
Q 1469 3103 1208 2742 
Q 947 2381 947 1747 
z
" transform="scale(0.015625)"/>
      <path id="DejaVuSans-73" d="M 2834 3397 
L 2834 2853 
Q 2591 2978 2328 3040 
Q 2066 3103 1784 3103 
Q 1356 3103 1142 2972 
Q 928 2841 928 2578 
Q 928 2378 1081 2264 
Q 1234 2150 1697 2047 
L 1894 2003 
Q 2506 1872 2764 1633 
Q 3022 1394 3022 966 
Q 3022 478 2636 193 
Q 2250 -91 1575 -91 
Q 1294 -91 989 -36 
Q 684 19 347 128 
L 347 722 
Q 666 556 975 473 
Q 1284 391 1588 391 
Q 1994 391 2212 530 
Q 2431 669 2431 922 
Q 2431 1156 2273 1281 
Q 2116 1406 1581 1522 
L 1381 1569 
Q 847 1681 609 1914 
Q 372 2147 372 2553 
Q 372 3047 722 3315 
Q 1072 3584 1716 3584 
Q 2034 3584 2315 3537 
Q 2597 3491 2834 3397 
z
" transform="scale(0.015625)"/>
      <path id="DejaVuSans-e5" d="M 2194 1759 
Q 1497 1759 1228 1600 
Q 959 1441 959 1056 
Q 959 750 1161 570 
Q 1363 391 1709 391 
Q 2188 391 2477 730 
Q 2766 1069 2766 1631 
L 2766 1759 
L 2194 1759 
z
M 3341 1997 
L 3341 0 
L 2766 0 
L 2766 531 
Q 2569 213 2275 61 
Q 1981 -91 1556 -91 
Q 1019 -91 701 211 
Q 384 513 384 1019 
Q 384 1609 779 1909 
Q 1175 2209 1959 2209 
L 2766 2209 
L 2766 2266 
Q 2766 2663 2505 2880 
Q 2244 3097 1772 3097 
Q 1472 3097 1187 3025 
Q 903 2953 641 2809 
L 641 3341 
Q 956 3463 1253 3523 
Q 1550 3584 1831 3584 
Q 2591 3584 2966 3190 
Q 3341 2797 3341 1997 
z
M 2331 4763 
Q 2331 4959 2193 5096 
Q 2056 5234 1856 5234 
Q 1653 5234 1517 5098 
Q 1381 4963 1381 4763 
Q 1381 4559 1517 4423 
Q 1653 4288 1856 4288 
Q 2056 4288 2193 4425 
Q 2331 4563 2331 4763 
z
M 2713 4763 
Q 2713 4403 2464 4153 
Q 2216 3903 1856 3903 
Q 1497 3903 1248 4153 
Q 1000 4403 1000 4763 
Q 1000 5122 1248 5370 
Q 1497 5619 1856 5619 
Q 2216 5619 2464 5370 
Q 2713 5122 2713 4763 
z
" transform="scale(0.015625)"/>
      <path id="DejaVuSans-62" d="M 3116 1747 
Q 3116 2381 2855 2742 
Q 2594 3103 2138 3103 
Q 1681 3103 1420 2742 
Q 1159 2381 1159 1747 
Q 1159 1113 1420 752 
Q 1681 391 2138 391 
Q 2594 391 2855 752 
Q 3116 1113 3116 1747 
z
M 1159 2969 
Q 1341 3281 1617 3432 
Q 1894 3584 2278 3584 
Q 2916 3584 3314 3078 
Q 3713 2572 3713 1747 
Q 3713 922 3314 415 
Q 2916 -91 2278 -91 
Q 1894 -91 1617 61 
Q 1341 213 1159 525 
L 1159 0 
L 581 0 
L 581 4863 
L 1159 4863 
L 1159 2969 
z
" transform="scale(0.015625)"/>
      <path id="DejaVuSans-f8" d="M 2828 2503 
L 1306 653 
Q 1434 522 1595 459 
Q 1756 397 1959 397 
Q 2419 397 2687 759 
Q 2956 1122 2956 1747 
Q 2956 1994 2925 2176 
Q 2894 2359 2828 2503 
z
M 2606 2841 
Q 2475 2969 2314 3033 
Q 2153 3097 1959 3097 
Q 1488 3097 1223 2730 
Q 959 2363 959 1703 
Q 959 1478 989 1306 
Q 1019 1134 1081 991 
L 2606 2841 
z
M 691 519 
Q 522 759 437 1067 
Q 353 1375 353 1747 
Q 353 2609 779 3096 
Q 1206 3584 1959 3584 
Q 2250 3584 2498 3504 
Q 2747 3425 2956 3263 
L 3391 3788 
L 3688 3541 
L 3231 2981 
Q 3397 2741 3481 2431 
Q 3566 2122 3566 1747 
Q 3566 888 3137 398 
Q 2709 -91 1959 -91 
Q 1659 -91 1407 -9 
Q 1156 72 959 231 
L 525 -294 
L 225 -50 
L 691 519 
z
" transform="scale(0.015625)"/>
      <path id="DejaVuSans-72" d="M 2631 2963 
Q 2534 3019 2420 3045 
Q 2306 3072 2169 3072 
Q 1681 3072 1420 2755 
Q 1159 2438 1159 1844 
L 1159 0 
L 581 0 
L 581 3500 
L 1159 3500 
L 1159 2956 
Q 1341 3275 1631 3429 
Q 1922 3584 2338 3584 
Q 2397 3584 2469 3576 
Q 2541 3569 2628 3553 
L 2631 2963 
z
" transform="scale(0.015625)"/>
      <path id="DejaVuSans-6b" d="M 581 4863 
L 1159 4863 
L 1159 1991 
L 2875 3500 
L 3609 3500 
L 1753 1863 
L 3688 0 
L 2938 0 
L 1159 1709 
L 1159 0 
L 581 0 
L 581 4863 
z
" transform="scale(0.015625)"/>
     </defs>
     <use xlink:href="#DejaVuSans-50"/>
     <use xlink:href="#DejaVuSans-6c" x="60.302734"/>
     <use xlink:href="#DejaVuSans-6f" x="88.085938"/>
     <use xlink:href="#DejaVuSans-74" x="149.267578"/>
     <use xlink:href="#DejaVuSans-74" x="188.476562"/>
     <use xlink:href="#DejaVuSans-69" x="227.685547"/>
     <use xlink:href="#DejaVuSans-6e" x="255.46875"/>
     <use xlink:href="#DejaVuSans-67" x="318.847656"/>
     <use xlink:href="#DejaVuSans-20" x="382.324219"/>
     <use xlink:href="#DejaVuSans-61" x="414.111328"/>
     <use xlink:href="#DejaVuSans-76" x="475.390625"/>
     <use xlink:href="#DejaVuSans-20" x="534.570312"/>
     <use xlink:href="#DejaVuSans-75" x="566.357422"/>
     <use xlink:href="#DejaVuSans-28" x="629.736328"/>
     <use xlink:href="#DejaVuSans-78" x="668.75"/>
     <use xlink:href="#DejaVuSans-2c" x="727.929688"/>
     <use xlink:href="#DejaVuSans-20" x="759.716797"/>
     <use xlink:href="#DejaVuSans-74" x="791.503906"/>
     <use xlink:href="#DejaVuSans-29" x="830.712891"/>
     <use xlink:href="#DejaVuSans-2c" x="869.726562"/>
     <use xlink:href="#DejaVuSans-20" x="901.513672"/>
     <use xlink:href="#DejaVuSans-6d" x="933.300781"/>
     <use xlink:href="#DejaVuSans-65" x="1030.712891"/>
     <use xlink:href="#DejaVuSans-64" x="1092.236328"/>
     <use xlink:href="#DejaVuSans-20" x="1155.712891"/>
     <use xlink:href="#DejaVuSans-76" x="1187.5"/>
     <use xlink:href="#DejaVuSans-69" x="1246.679688"/>
     <use xlink:href="#DejaVuSans-73" x="1274.462891"/>
     <use xlink:href="#DejaVuSans-6e" x="1326.5625"/>
     <use xlink:href="#DejaVuSans-69" x="1389.941406"/>
     <use xlink:href="#DejaVuSans-6e" x="1417.724609"/>
     <use xlink:href="#DejaVuSans-67" x="1481.103516"/>
     <use xlink:href="#DejaVuSans-20" x="1544.580078"/>
     <use xlink:href="#DejaVuSans-61" x="1576.367188"/>
     <use xlink:href="#DejaVuSans-76" x="1637.646484"/>
     <use xlink:href="#DejaVuSans-20" x="1696.826172"/>
     <use xlink:href="#DejaVuSans-73" x="1728.613281"/>
     <use xlink:href="#DejaVuSans-74" x="1780.712891"/>
     <use xlink:href="#DejaVuSans-e5" x="1819.921875"/>
     <use xlink:href="#DejaVuSans-65" x="1881.201172"/>
     <use xlink:href="#DejaVuSans-6e" x="1942.724609"/>
     <use xlink:href="#DejaVuSans-64" x="2006.103516"/>
     <use xlink:href="#DejaVuSans-65" x="2069.580078"/>
     <use xlink:href="#DejaVuSans-20" x="2131.103516"/>
     <use xlink:href="#DejaVuSans-62" x="2162.890625"/>
     <use xlink:href="#DejaVuSans-f8" x="2226.367188"/>
     <use xlink:href="#DejaVuSans-6c" x="2287.548828"/>
     <use xlink:href="#DejaVuSans-67" x="2315.332031"/>
     <use xlink:href="#DejaVuSans-65" x="2378.808594"/>
     <use xlink:href="#DejaVuSans-72" x="2440.332031"/>
     <use xlink:href="#DejaVuSans-20" x="2481.445312"/>
     <use xlink:href="#DejaVuSans-62" x="2513.232422"/>
     <use xlink:href="#DejaVuSans-61" x="2576.708984"/>
     <use xlink:href="#DejaVuSans-6b" x="2637.988281"/>
    </g>
   </g>
  </g>
 </g>
 <defs>
  <clipPath id="p8311e48ea2">
   <rect x="138.24" y="64.8864" width="857.088" height="416.3544"/>
  </clipPath>
 </defs>
</svg>
